<?xml version="1.0" encoding="utf-8"?>
<!-- Generator: Adobe Illustrator 22.0.1, SVG Export Plug-In . SVG Version: 6.00 Build 0)  -->
<svg version="1.1" id="Слой_1" xmlns="http://www.w3.org/2000/svg" xmlns:xlink="http://www.w3.org/1999/xlink" x="0px" y="0px"
	 viewBox="0 0 1145.6 768" style="enable-background:new 0 0 1145.6 768;" xml:space="preserve">
<style type="text/css">
	.st0{fill:#424242;}
	.st1{fill:#3AA2CC;}
	.st2{fill:none;}
</style>
<path class="st0" d="M268.4,486c0,0-39.2-7.1-46.3-45.9h202.8v-80.4H302c0,0-46.8-25.5-61.5-59.6c0,0-4.7-14.7-4.3-19.4l188.6,1.9
	v-138H144.6c31.2-87,86.5-113,86.5-113h193.8V6.6H246.2c0,0-25.5-6.6-47.3,21.7c-21.7,28.4-81,124.8-81,124.8h-6
	c0,0-5-27.7-20.2-34.7c-15.2-7.1-45.7-0.4-45.7-0.4s-19.9,3.9-27.7,23.4s25.5,30.1,25.5,30.1s25.9,13.8,46.4,7.8l7.8-1.1l-0.4,9.9
	c0,0-56.7,31.6-76.9,68.4c0,0-11.3,16-14.2,37.2v180.5l11,14.9l0.9,65.2c0,0-2.1,33.3,47.3,33.3c44.7,0,76.1,7.6,76.6-40.4v-16.3
	l282.5-0.7V486H268.4z M144.6,486c-37.8,0-89.4-27.4-89.4-27.4c-38.8-39.2,16.1-29.3,16.1-29.3l76.1,33.8
	C147.4,463.1,182.4,486,144.6,486z M159.7,337.1c0,0-31.7,4.3-61.5-6.1c-29.8-10.4-45.9-39.2-45.9-39.2s-19.9-37.3,19.9-44.2
	c0,0,4.3-1,23.2,7.3c0,0,44.9,16.5,78.5,48.7C207.4,335.7,159.7,337.1,159.7,337.1z"/>
<g>
	<path class="st0" d="M642.4,432.1v-135c0,0,10.4-62.9,159.5-61.7c-24.9-26.9-61.1-47.2-61.1-47.2l-0.4-9.9l7.8,1.1
		c20.6,6,46.4-7.8,46.4-7.8s33.3-10.6,25.5-30.1s-27.7-23.4-27.7-23.4s-30.5-6.7-45.7,0.4c-15.2,7.1-20.2,34.7-20.2,34.7h-6
		c0,0-59.2-96.4-81-124.8C617.8,0,592.3,6.6,592.3,6.6H413.5v25.1h193.8c0,0,55.3,26,86.5,113H413.5v138l188.6-1.9
		c0.5,4.7-4.3,19.4-4.3,19.4c-14.7,34-61.5,59.6-61.5,59.6H413.5v80.4h117C556.9,436.3,593.2,433.1,642.4,432.1z"/>
	<polygon class="st0" points="424.9,486 413.5,486 413.5,530.4 424.9,530.5 	"/>
</g>
<path class="st1" d="M583.3,462.4c0,0-134.7,2.3-134.7,45.9c0,41.1,134.7,44.4,134.7,44.4V462.4z"/>
<path class="st1" d="M583.3,462.4c0,0,135.8,2.3,134.7,45.9c-1.2,49.9-134.7,44.4-134.7,44.4V462.4z"/>
<path class="st1" d="M803.1,268.1c0,0-134.7,2.3-134.7,45.9c0,41.1,134.7,44.4,134.7,44.4V268.1z"/>
<path class="st1" d="M803.1,268.1c0,0,135.8,2.3,134.7,45.9c-1.2,49.9-134.7,44.4-134.7,44.4V268.1z"/>
<path class="st1" d="M1005.2,543.1c0,0-134.7,2.3-134.7,45.9c0,41.1,134.7,44.4,134.7,44.4V543.1z"/>
<path class="st1" d="M1005.2,543.1c0,0,135.8,2.3,134.7,45.9c-1.2,49.9-134.7,44.4-134.7,44.4V543.1z"/>
<path class="st1" d="M449.8,543.1v42.3c0,0,14.8,34.4,133.4,34.4v-40.1C583.3,579.7,489.2,585.8,449.8,543.1z"/>
<path class="st1" d="M716.7,543.1v42.3c0,0-14.8,34.4-133.4,34.4v-40.1C583.3,579.7,677.3,585.8,716.7,543.1z"/>
<path class="st1" d="M871.8,624.8v42.3c0,0,14.8,34.4,133.4,34.4v-40.1C1005.2,661.4,911.1,667.5,871.8,624.8z"/>
<path class="st1" d="M1138.6,624.8v42.3c0,0-14.8,34.4-133.4,34.4v-40.1C1005.2,661.4,1099.3,667.5,1138.6,624.8z"/>
<path class="st1" d="M871.8,689v42.3c0,0,14.8,34.4,133.4,34.4v-40.1C1005.2,725.7,911.1,731.8,871.8,689z"/>
<path class="st1" d="M1138.6,689v42.3c0,0-14.8,34.4-133.4,34.4v-40.1C1005.2,725.7,1099.3,731.8,1138.6,689z"/>
<path class="st1" d="M449.8,609v42.3c0,0,14.8,34.4,133.4,34.4v-40.1C583.3,645.7,489.2,651.8,449.8,609z"/>
<path class="st1" d="M716.7,609v42.3c0,0-14.8,34.4-133.4,34.4v-40.1C583.3,645.7,677.3,651.8,716.7,609z"/>
<path class="st1" d="M449.8,676.4v42.3c0,0,14.8,34.4,133.4,34.4V713C583.3,713,489.2,719.2,449.8,676.4z"/>
<path class="st1" d="M716.7,676.4v42.3c0,0-14.8,34.4-133.4,34.4V713C583.3,713,677.3,719.2,716.7,676.4z"/>
<path class="st1" d="M669.7,348.3v42.3c0,0,14.8,34.4,133.4,34.4V385C803.1,385,709,391.1,669.7,348.3z"/>
<path class="st1" d="M936.5,348.3v42.3c0,0-14.8,34.4-133.4,34.4V385C803.1,385,897.2,391.1,936.5,348.3z"/>
<path class="st1" d="M936.5,418.7V461c0,0-14.8,34.4-133.4,34.4v-40.1C803.1,455.4,897.2,461.5,936.5,418.7z"/>
<path class="st1" d="M936.5,481v42.3c0,0-14.8,34.4-133.4,34.4v-40.1c0,0,0.4,0,1.3,0.1C815.8,518.2,899.9,520.8,936.5,481z"/>
<path class="st1" d="M669.7,418.7v35.5c32.7,10,53.5,26.2,63.7,36c17.9,3.1,40.6,5.2,69.7,5.2v-40.1
	C803.1,455.4,709,461.5,669.7,418.7z"/>
<path class="st2" d="M743.8,474.1"/>
<line class="st1" x1="743.8" y1="519.3" x2="743.8" y2="564.2"/>
<polygon class="st1" points="743.8,517.5 805.3,517.7 805.3,557.7 743.8,557.7 "/>
<rect x="744.7" y="582.4" class="st1" width="102.6" height="41.7"/>
<rect x="743.8" y="653.2" class="st1" width="102.6" height="41.2"/>
</svg>
