<?xml version="1.0" encoding="utf-8"?>
<!-- Generator: Adobe Illustrator 22.0.1, SVG Export Plug-In . SVG Version: 6.00 Build 0)  -->
<svg version="1.1" id="Слой_1" xmlns="http://www.w3.org/2000/svg" xmlns:xlink="http://www.w3.org/1999/xlink" x="0px" y="0px"
	 viewBox="0 0 761 768" style="enable-background:new 0 0 761 768;" xml:space="preserve">
<style type="text/css">
	.st0{fill:#565558;}
	.st1{fill:#3AA2CC;}
</style>
<g>
	<path class="st0" d="M525.6,765.2H5.3V68.3h520.3V765.2z M25.3,745.2h480.3V88.3H25.3V745.2z"/>
</g>
<rect x="166.6" y="135.7" class="st1" width="199" height="26.6"/>
<rect x="113.4" y="189" class="st1" width="306.9" height="32.2"/>
<rect x="72.7" y="301.1" class="st1" width="234" height="22.4"/>
<rect x="72.7" y="409" class="st1" width="147.2" height="26.6"/>
<rect x="72.7" y="515.5" class="st1" width="277.5" height="28"/>
<rect x="72.7" y="629" class="st1" width="110.7" height="23.8"/>
<g>
	<path class="st0" d="M462.8,360.5h-94.2v-94.2h94.2V360.5z M376.6,352.5h78.2v-78.2h-78.2V352.5z"/>
</g>
<g>
	<path class="st0" d="M463.3,464.3h-95.2v-95.2h95.2V464.3z M377.1,455.3h77.2v-77.2h-77.2V455.3z"/>
</g>
<g>
	<path class="st0" d="M462.8,576.6h-94.2v-94.2h94.2V576.6z M376.6,568.6h78.2v-78.2h-78.2V568.6z"/>
</g>
<g>
	<path class="st0" d="M462.8,688h-94.2v-94.2h94.2V688z M376.6,680h78.2v-78.2h-78.2V680z"/>
</g>
<rect x="128.1" y="39" class="st0" width="275.4" height="39.2"/>
<rect x="172.2" y="11" class="st0" width="185" height="40.6"/>
<path class="st0" d="M377.9,301.1l25.6,41.3c0,0,50.1-56.8,83.7-79.9c0,0-66.2,37.5-81.3,55.7L377.9,301.1z"/>
<path class="st0" d="M377.9,519.7l25.6,41.3c0,0,50.1-56.8,83.7-79.9c0,0-66.2,37.5-81.3,55.7L377.9,519.7z"/>
<path class="st0" d="M609.5,379.6l10.5,4.2l42-133.1l7.7-18.9c0,0,12.6-11.9,11.9,5.6c-0.7,17.5-118.4,381.2-118.4,381.2
	s22.5-4.9,41.7,11.9l127.2-409.2c0,0-17.1-18.3-43.4-16.1l-2.8,9.1l-14-4.2c0,0-10.5-4.9-13.3,4.9L609.5,379.6z"/>
<path class="st0" d="M561.1,633.9c0,0,17.9-2.9,36.8,10.5L576,676.2c0,0-11.3,9.5-12.8-4.5c-1.5-14.5-2.2-36.5-2.2-36.5V633.9z"/>
<path class="st0" d="M695.3,193.7c0,0,22.4-1.6,39.9,15.9l11.4-30.5c0,0-16.6-18-41.2-13.8L695.3,193.7z"/>
</svg>
