<?xml version="1.0" encoding="utf-8"?>
<!-- Generator: Adobe Illustrator 19.0.1, SVG Export Plug-In . SVG Version: 6.00 Build 0)  -->
<svg version="1.1" id="Слой_1" xmlns="http://www.w3.org/2000/svg" xmlns:xlink="http://www.w3.org/1999/xlink" x="0px" y="0px"
	 viewBox="511.5 -91 712.5 700" style="enable-background:new 511.5 -91 712.5 700;" xml:space="preserve">
<style type="text/css">
	.st0{fill:#545559;}
	.st1{fill:#3AA2CC;}
	.st2{fill:#FFFFFF;}
</style>
<path class="st0" d="M730.5,45.2V28h-95.9l-60.3,69.3c-7.3,3.3-15.8,2.8-16.4-8.9c-0.6-11.7-16.4-10-24.3-7.8
	c-7.9,2.2-19.7,10.5-19.2,22.7s18,12.8,18,12.8s0,0,11.3,0s9-3.9,9-3.9l6.2,2.2c0,0-25.4,23.3-36.7,33.3
	c-11.3,10-10.7,18.9-10.7,18.9s0,133.7,0,154.4s26.5,17.6,26.5,17.6c0.7,0,4.6,0,22,0c25.4,0,24.3-17.6,24.3-17.6v-14h146.1v-38.3
	h-68v-31.1h68V98.4H594.5l41.2-53.2H730.5z M604.1,187.7c6.8,8.1-1.4,9.6-3.8,9.9c15.1-1.3-65,9.2-66.7-14.5
	c-1.7-23.9,23.7-11.6,35.5-4.5C581,185.7,604.1,187.7,604.1,187.7z"/>
<g>
	<polygon class="st0" points="817.9,128.2 817.9,103.5 840.7,103.5 840.7,98.4 730.5,98.4 730.5,128.2 	"/>
	<polygon class="st0" points="840.7,65.3 840.7,44.5 826.3,28 730.5,28 730.5,45.2 825.2,45.2 	"/>
</g>
<rect x="838" y="121" class="st1" width="287" height="287"/>
<rect x="739" y="143" class="st1" width="80" height="29"/>
<rect x="739" y="197" class="st1" width="80" height="29"/>
<rect x="739" y="250" class="st1" width="80" height="29"/>
<rect x="739" y="304" class="st1" width="80" height="29"/>
<rect x="739" y="355" class="st1" width="80" height="29"/>
<rect x="1144" y="144" class="st1" width="80" height="29"/>
<rect x="1144" y="198" class="st1" width="80" height="29"/>
<rect x="1144" y="251" class="st1" width="80" height="29"/>
<rect x="1144" y="304" class="st1" width="80" height="29"/>
<rect x="1144" y="357" class="st1" width="80" height="29"/>
<rect x="1049.5" y="447.7" transform="matrix(-7.832000e-003 -1 1 -7.832000e-003 635.7964 1555.3223)" class="st1" width="80" height="29"/>
<rect x="995.5" y="448.1" transform="matrix(-7.832000e-003 -1 1 -7.832000e-003 580.9784 1501.7244)" class="st1" width="80" height="29"/>
<rect x="939.5" y="448.5" transform="matrix(-7.832000e-003 -1 1 -7.832000e-003 524.1447 1446.1263)" class="st1" width="80" height="29"/>
<rect x="884.5" y="448.9" transform="matrix(-7.832000e-003 -1 1 -7.832000e-003 468.3186 1391.5282)" class="st1" width="80" height="29"/>
<rect x="832.5" y="449.3" transform="matrix(-7.832000e-003 -1 1 -7.832000e-003 415.5155 1339.8832)" class="st1" width="80" height="29"/>
<rect x="1049.5" y="43.9" transform="matrix(3.844060e-003 -1 1 3.844060e-003 1026.9032 1147.6454)" class="st1" width="80" height="29"/>
<rect x="996.5" y="43.7" transform="matrix(3.844060e-003 -1 1 3.844060e-003 974.3081 1094.4542)" class="st1" width="80" height="29"/>
<rect x="940.5" y="43.5" transform="matrix(3.844060e-003 -1 1 3.844060e-003 918.7244 1038.2628)" class="st1" width="80" height="29"/>
<rect x="885.5" y="43.3" transform="matrix(3.844060e-003 -1 1 3.844060e-003 864.137 983.0715)" class="st1" width="80" height="29"/>
<rect x="834.5" y="43.1" transform="matrix(3.844060e-003 -1 1 3.844060e-003 813.5341 931.9031)" class="st1" width="80" height="29"/>
<polygon class="st2" points="868,321 868,190 940,190 940,200 940,210 888,210 888,301 940,301 940,321 "/>
<polygon class="st2" points="954,190 954,321 974,321 973,268 1021,268 1021,190 "/>
<rect x="973" y="210" class="st1" width="28" height="38"/>
<polygon class="st2" points="1035,190 1035,321 1095,321 1095,190 1075,190 1075,301 1055,301 1055,190 "/>
</svg>
