<?xml version="1.0" encoding="utf-8"?>
<!-- Generator: Adobe Illustrator 21.0.0, SVG Export Plug-In . SVG Version: 6.00 Build 0)  -->
<svg version="1.1" id="Слой_1" xmlns="http://www.w3.org/2000/svg" xmlns:xlink="http://www.w3.org/1999/xlink" x="0px" y="0px"
	 viewBox="0 0 1366 768" style="enable-background:new 0 0 1366 768;" xml:space="preserve">
<style type="text/css">
	.st0{fill:#545559;}
	.st1{fill:#3AA2CC;}
	.st2{fill:#FFFFFF;}
</style>
<path class="st0" d="M527.5,149.2V132h-95.9l-60.3,69.3c-7.3,3.3-15.8,2.8-16.4-8.9s-16.4-10-24.3-7.8c-7.9,2.2-19.7,10.5-19.2,22.7
	s18,12.8,18,12.8s0,0,11.3,0s9-3.9,9-3.9l6.2,2.2c0,0-25.4,23.3-36.7,33.3s-10.7,18.9-10.7,18.9s0,133.7,0,154.4
	c0,20.7,26.5,17.6,26.5,17.6c0.7,0,4.6,0,22,0c25.4,0,24.3-17.6,24.3-17.6V411h146.1v-38.3h-68v-31.1h68V202.4H391.5l41.2-53.2
	H527.5z M401.1,291.7c6.8,8.1-1.4,9.6-3.8,9.9c15.1-1.3-65,9.2-66.7-14.5c-1.7-23.9,23.7-11.6,35.5-4.5
	C378,289.7,401.1,291.7,401.1,291.7z"/>
<g>
	<polygon class="st0" points="614.9,232.2 614.9,207.5 637.7,207.5 637.7,202.4 527.5,202.4 527.5,232.2 	"/>
	<polygon class="st0" points="637.7,169.3 637.7,148.5 623.3,132 527.5,132 527.5,149.2 622.2,149.2 	"/>
</g>
<rect x="635" y="225" class="st1" width="287" height="287"/>
<rect x="536" y="247" class="st1" width="80" height="29"/>
<rect x="536" y="301" class="st1" width="80" height="29"/>
<rect x="536" y="354" class="st1" width="80" height="29"/>
<rect x="536" y="408" class="st1" width="80" height="29"/>
<rect x="536" y="459" class="st1" width="80" height="29"/>
<rect x="941" y="248" class="st1" width="80" height="29"/>
<rect x="941" y="302" class="st1" width="80" height="29"/>
<rect x="941" y="355" class="st1" width="80" height="29"/>
<rect x="941" y="408" class="st1" width="80" height="29"/>
<rect x="941" y="461" class="st1" width="80" height="29"/>
<rect x="846.5" y="551.7" transform="matrix(7.832240e-03 1 -1 7.832240e-03 1445.7491 -324.6916)" class="st1" width="80" height="29"/>
<rect x="792.5" y="552.1" transform="matrix(7.832240e-03 1 -1 7.832240e-03 1392.5731 -270.2985)" class="st1" width="80" height="29"/>
<rect x="736.5" y="552.5" transform="matrix(7.832240e-03 1 -1 7.832240e-03 1337.4127 -213.9055)" class="st1" width="80" height="29"/>
<rect x="681.5" y="552.9" transform="matrix(7.832240e-03 1 -1 7.832240e-03 1283.2444 -158.5124)" class="st1" width="80" height="29"/>
<rect x="629.5" y="553.3" transform="matrix(7.832240e-03 1 -1 7.832240e-03 1232.0291 -106.1425)" class="st1" width="80" height="29"/>
<rect x="846.5" y="147.9" transform="matrix(-3.844088e-03 1 -1 -3.844088e-03 1052.2921 -723.4822)" class="st1" width="80" height="29"/>
<rect x="793.5" y="147.7" transform="matrix(-3.844088e-03 1 -1 -3.844088e-03 998.8928 -670.6797)" class="st1" width="80" height="29"/>
<rect x="737.5" y="147.5" transform="matrix(-3.844088e-03 1 -1 -3.844088e-03 942.4818 -614.8773)" class="st1" width="80" height="29"/>
<rect x="682.5" y="147.3" transform="matrix(-3.844088e-03 1 -1 -3.844088e-03 887.0747 -560.0749)" class="st1" width="80" height="29"/>
<rect x="631.5" y="147.1" transform="matrix(-3.844088e-03 1 -1 -3.844088e-03 835.6945 -509.2609)" class="st1" width="80" height="29"/>
<polygon class="st2" points="665,425 665,294 737,294 737,304 737,314 685,314 685,405 737,405 737,425 "/>
<polygon class="st2" points="751,294 751,425 771,425 770,372 818,372 818,294 "/>
<rect x="770" y="314" class="st1" width="28" height="38"/>
<polygon class="st2" points="832,294 832,425 892,425 892,294 872,294 872,405 852,405 852,294 "/>
</svg>
