<?xml version="1.0" encoding="utf-8"?>
<!-- Generator: Adobe Illustrator 19.0.1, SVG Export Plug-In . SVG Version: 6.00 Build 0)  -->
<svg version="1.1" id="Layer_1" xmlns="http://www.w3.org/2000/svg" xmlns:xlink="http://www.w3.org/1999/xlink" x="0px" y="0px"
	 viewBox="0 0 598.1 600" style="enable-background:new 0 0 598.1 600;" xml:space="preserve">
<style type="text/css">
	.st0{fill-rule:evenodd;clip-rule:evenodd;fill:#FFFFFF;}
	.st1{fill-rule:evenodd;clip-rule:evenodd;fill:#EC1C24;}
	.st2{fill-rule:evenodd;clip-rule:evenodd;fill:#231F20;}
	.st3{fill-rule:evenodd;clip-rule:evenodd;}
	.st4{fill-rule:evenodd;clip-rule:evenodd;fill:#419CD6;}
</style>
<g id="logo-h">
	<polygon class="st0" points="0,1 599.3,1 599.3,599.7 0,599.7 0,1 	"/>
	<polygon class="st1" points="530.1,148 530.1,104.8 560.7,104.8 560.7,220.5 529.5,220.5 529.5,175.3 494.9,175.3 494.9,221.2 
		463.6,221.2 463.6,104.8 494.2,104.8 494.2,148 530.1,148 	"/>
	<path class="st1" d="M429,143.4l24.6-16c-6.6-10.6-18-19.3-29.3-22.6c-20.6-6.6-42.6,0-56.5,16c-16,19.3-18,51.2-6.6,73.8
		c10,18,28.6,28.6,49.2,28.6c14,0,33.9-8,43.2-24.6l-24.6-16c-2,4.7-8,10-13.3,11.3c-6.6,2.7-17.3,0-23.3-6
		c-10-10.6-11.3-29.3-6-41.9c4-8.6,13.3-16,22.6-16C417.7,130.1,425,136.1,429,143.4L429,143.4z"/>
	<path class="st1" d="M141.7,164c1.3-30.6,13.3-47.9,33.9-57.2c14.6-6.6,36.6-5.3,52.6,8c4,3.3,8,7.3,10.6,12
		c13.3,22.6,12.6,49.2,2.6,68.5c-10,18-27.9,27.9-48.6,27.9c-15.3-0.7-35.3-11.3-43.9-28.6C145.7,186,141.7,174,141.7,164l28.6-1.3
		c0,6.6,2,14,4.7,19.3c4.7,8,12.6,14,21.9,12.6c8.6,0,16.6-7.3,20-14.6c5.3-14,4-28.6-2.7-38.6c-4.6-6.6-9.3-8.6-15.3-9.3
		c-8-1.3-14.6,0-20.6,6.7c-5.3,6.6-7.3,15.3-8,23.9L141.7,164L141.7,164z"/>
	<path class="st1" d="M37.9,142.7v77.8h59.9c15.3,0,28.6-8,33.9-20c4.7-10.6,2.7-23.9-6-32.6c-4.6-4.6-7.3-6-10.6-6.6
		c3.3-2,7.3-6,9.3-8.6c6-8.6,6-21.9-0.7-32.6c-6.6-10.6-18-15.3-31.9-15.3H37.9V142.7h28.6v-13.3h21.3c3.3,0,6.6,0.7,9.3,4.7
		c2,2.7,2.7,8,0.7,11.3c-1.3,3.3-5.3,5.3-8,5.3H70.5V174h20.6c2.7,0,6.6,0.7,9.3,4.7c3.3,4,2.7,9.3,0.7,12.6
		c-2.7,4.7-6.6,5.3-11.3,5.3H66.5V174h4v-23.3h-4v-8H37.9L37.9,142.7z"/>
	<path class="st1" d="M343.2,118.8c-5.3-4.7-11.3-8.6-17.9-11.3c-24-10-43.2-5.3-55.9,6.6c-10.6,8.6-13.3,23.3-9.3,35.9
		c4,9.3,11.3,17.3,21.9,20.6c12,4,18,4.7,25.3,6.7c6.6,0.7,11.3,7.3,8,14c-1.3,3.3-6,6.7-10.6,6.7c-12,0.7-23.9-8-32.6-14.6
		l-18.6,19.3c9.3,9.3,18.6,14.6,29.9,18c15.3,4.7,39.2,4,51.9-9.3c10-9.3,12.6-22.6,9.3-35.9c-6-19.3-27.3-23.3-33.9-24.6
		c-12.6-2.7-20-3.3-22.6-10.6c-0.7-3.3,0-7.3,3.3-9.3c11.3-7.3,25.3,0,34.6,6.6L343.2,118.8L343.2,118.8z"/>
	<path class="st2" d="M366.5,464c0,36.6-29.9,67.2-67.2,67.2c-37.3,0-67.2-30.6-67.2-67.2c0-37.2,29.9-67.8,67.2-67.8
		C336.6,396.1,366.5,426.7,366.5,464h-8c0-33.3-26.6-59.9-59.2-59.9c-33.3,0-59.9,26.6-59.9,59.9c0,32.6,26.6,59.2,59.9,59.2
		c32.6,0,59.2-26.6,59.2-59.2H366.5L366.5,464z"/>
	<path class="st2" d="M331.2,441.4v9.3h-56.5v26.6h-7.3v-35.9l0.7-7.3c-0.7,1.3-1.3,2-2,2.7c-10.6,12-12.6,31.3-6,45.9
		c1.3,2,4,6,4.6,7.3c1.3,1.3,2.7,2.7,3.3,4l-0.7-4.6v-12h56.5v7.3h-49.2v23.3c-14.6-8-23.3-22.6-25.9-37.9c-2-20.6,8-40.6,25.9-50.6
		v23.9h49.2v-23.9c14.6,8.6,23.9,23.9,25.9,40.6c0.7,20-8,37.9-25.9,47.9v-57.2h7.3v38.6l-0.7,4c0-0.7,2-2,2.7-3.3
		c1.3-1.3,4-5.3,4.6-7.3c7.3-14.6,5.3-33.9-5.3-45.9c-0.6-1.3-2-1.3-2-2.7L331.2,441.4L331.2,441.4z"/>
	<path class="st3" d="M79.8,321c4.6,1.3,14,2.7,17.3,7.3c2,2,2,4.7,2,6c0,9.3-10,12-12,12.6c-3.3,0.7-6.6,0.7-7.3,0.7
		c-19.3,0-27.3-8.6-31.9-15.3l-16,11.3c1.3,2,3.3,4.6,5.3,6.6c14,14.6,33.3,14.6,39.2,14.6c4.6,0,21.3,0,33.3-10.6
		c6.6-5.3,10-12.6,10-21.9c0-9.3-3.3-14-6-17.3c-6.6-7.3-17.3-10.6-27.3-12.6l-10-2c-9.3-2-15.3-3.3-18-8c-0.7-1.3-0.7-2.7-0.7-4.6
		c0-1.3,0-2.7,0.7-4c4.6-8,17.3-8,18-8c16,0,23.3,10,26.6,15.3l15.3-12c-14-19.3-31.9-20.6-40.6-20.6c-20.6,0-31.9,9.3-36.6,16.6
		c-3.3,6-3.3,12.6-3.3,15.3c0,14.6,9.3,20.6,14,23.3c4.6,2.7,10.6,3.3,15.3,4.6L79.8,321L79.8,321z"/>
	<path class="st3" d="M210.9,327c-0.7-16-4-25.3-8-30.6c-4-6-13.3-15.3-31.3-15.3c-22.6,0-32.6,14.6-35.9,22.6
		c-2.7,6-3.3,12-3.3,18.6c0,12.6,3.3,23.3,12,31.9c10.6,10,23.3,10.6,28.6,10.6c16,0,26.6-8,31.3-12c3.3-3.3,6-6.6,7.3-8l-16.6-9.3
		c-0.7,1.3-2,2.7-2.7,3.3c-2,2.7-8,7.3-18,7.3c-9.3,0-14.6-4-17.3-7.3c-4-4.6-4.7-10-4.7-12H210.9L210.9,327z M153,313
		c0-2.7,2-12,11.3-15.3c1.3-0.7,4-1.3,8-1.3c10,0,14,6,16,10c1.3,2.7,1.3,5.3,1.3,6L153,313L153,313z"/>
	<path class="st3" d="M246.8,283.1h-18.6v79.2h18.6v-33.9c0-4,0-8,1.3-12.6c4.6-14.6,19.3-14.6,23.3-14.6v-19.3h-1.3
		c-2,0-12.6,0-18.6,6.6c-2,1.3-3.3,4-4.7,6V283.1L246.8,283.1z"/>
	<polygon class="st3" points="350.5,283.1 330.6,283.1 314.6,337.6 298,283.1 278.7,283.1 304,362.2 324.6,362.2 350.5,283.1 	"/>
	<path class="st3" d="M365.2,271.1h18.6v-19.3h-18.6V271.1L365.2,271.1z M365.2,362.2h18.6v-79.2h-18.6V362.2L365.2,362.2z"/>
	<path class="st3" d="M459,331.6c-1.4,3.3-5.3,15.3-19.3,15.3c-10,0-16-6.6-18.6-16c-0.7-1.3-1.4-4.6-1.4-8.6c0-2.6,0-11.3,6-18
		c4-4.6,8-6.6,14-6.6c7.3,0,10.6,3.3,13.3,5.3c0.7,1.3,3.3,4,4.6,8l16.6-7.3c-5.3-12.6-14.6-18-19.3-20c-4.6-2-9.3-2.6-14.6-2.6
		c-17.9,0-27.9,10-31.2,15.3c-6,7.3-8.6,16.6-8.6,26.6c0,6.6,1.3,28.6,22.6,37.9c7.3,3.3,13.3,4,16.6,4c12,0,23.3-5.3,30.6-15.3
		c2-2.7,4-6,4.6-9.3L459,331.6L459,331.6z"/>
	<path class="st3" d="M562.1,327c-0.7-16-4-25.3-8-30.6c-4-6-13.3-15.3-30.6-15.3c-23.3,0-33.3,14.6-36.6,22.6
		c-2.6,6-3.3,12-3.3,18.6c0,12.6,3.3,23.3,12,31.9c11.3,10,23.3,10.6,28.6,10.6c15.9,0,26.6-8,31.2-12c4-3.3,6-6.6,7.3-8l-16-9.3
		c-1.3,1.3-2,2.7-2.6,3.3c-2.6,2.7-8.6,7.3-18,7.3c-10,0-14.6-4-17.3-7.3c-4-4.6-5.3-10-5.3-12H562.1L562.1,327z M504.2,313
		c0.7-2.7,2.7-12,11.3-15.3c1.3-0.7,4-1.3,8-1.3c10,0,14.6,6,16,10c1.3,2.7,1.3,5.3,2,6L504.2,313L504.2,313z"/>
	<polygon class="st4" points="0,396.1 299.3,581.1 598,396.1 598,599.7 0,599.7 0,396.1 	"/>
	<polygon class="st4" points="0,1.7 598,1.7 598,59.6 0,59.6 0,1.7 	"/>
</g>

</svg>
