<?xml version="1.0" encoding="utf-8"?>
<!-- Generator: Adobe Illustrator 22.0.1, SVG Export Plug-In . SVG Version: 6.00 Build 0)  -->
<svg version="1.1" id="Слой_1" xmlns="http://www.w3.org/2000/svg" xmlns:xlink="http://www.w3.org/1999/xlink" x="0px" y="0px"
	 viewBox="0 0 700 768" style="enable-background:new 0 0 700 768;" xml:space="preserve">
<style type="text/css">
	.st0{fill:#3AA2CC;}
	.st1{fill:none;stroke:#3AA2CC;stroke-width:10;stroke-miterlimit:10;}
	.st2{fill:#535557;}
</style>
<g>
	<path class="st0" d="M354,389.3h-15.7l-1.1-0.4c-1.9-0.6-47.5-16.5-65.9-73.4c-15.8-48.7-33-73.6-35.4-76.8
		c-3.7-3.6-13-12.4-17.5-15.1l-3.3-2.1v-32.7l45.1-33.4l81.2-4.5h8.4v14h-8.2l-76.4,4.3l-36.1,26.7v18c6.9,5.2,15.9,14,17.1,15.1
		l0.4,0.3l0.3,0.4c0.8,1.1,20.1,26.7,37.8,81.4c14.9,46.1,49.6,61.5,56,64H354V389.3z"/>
</g>
<path class="st0" d="M209.2,192.7V175l12.9-9.4v-43c0,0,4.8-66.8,31-86.6S305,9.3,354,9v167.8c0,0-36.4-4.1-69.1,18.3h-45.6
	l-2.4,27.7l-27.7-8.5V192.7z"/>
<g>
	<g>
		<path class="st0" d="M362.2,389.3h-15.7v-14h13.3c6.4-2.5,41.1-17.9,56-64c17.7-54.7,37-80.3,37.8-81.4l0.7-0.7
			c1.2-1.1,10.2-10,17.1-15.1v-18l-36.1-26.7l-76.4-4.3h-8.2v-14l8.8,0l80.8,4.5l45.1,33.4v32.7l-3.3,2.1
			c-4.5,2.8-13.8,11.5-17.5,15.1c-2.3,3.2-19.6,28.1-35.4,76.8c-18.4,56.9-64,72.7-65.9,73.4L362.2,389.3z"/>
	</g>
	<path class="st0" d="M491.2,192.7V175l-12.9-9.4v-43c0,0-4.8-66.8-31-86.6S395.4,9.3,346.4,9v167.8c0,0,36.4-4.1,69.1,18.3h45.6
		l2.4,27.7l27.7-8.5V192.7z"/>
</g>
<path class="st1" d="M612.3,308.7"/>
<g>
	<path class="st2" d="M237,562.9l223.4,3.5l30-184h-28C449.5,449.4,383,450,383,450h-30.1h-6.4h-30.1c0,0-66.5-0.6-79.5-67.7h-32
		L237,562.9z"/>
	<path class="st2" d="M674.4,528.3c-7.1-71.8-48.3-84.2-48.3-84.2l-83.4-39.8l-39.4,162h47.5L516,731.9H175.7l-30.1-164.4h44
		l-33.5-162.9l-82.9,39.6c0,0-41.2,12.4-48.3,84.2C17.9,600.1,3.7,699.1,3.7,699.1l14.1,7.7v53h108.3v-22.4h9.4v22.4h205.5h5.3h6.4
		h5.3h205.5v-22.4h9.4v22.4h108.3v-53l14.1-7.7C695.6,699.1,681.5,600.1,674.4,528.3z"/>
</g>
<path class="st0" d="M270.3,585.1c-1.8,1.4-3.9,11.7-3.9,11.7l22,2.7l-4,20.7l-20.4-1.9l-1.9,9.1c0,0,14.2,9.5,19.4,9
	c3.4-0.3,19.5-6.4,19.5-6.4l102,66.3c0,0,4.6,18.7,9.2,22.7c4.7,4,22.1,3.1,22.1,3.1l1.8-8.6l-18-8.2l4.2-13.5l18.8,3.6l2.9-9.1
	c0,0-13.4-9.7-18.4-9.9c-3-0.1-15.2,2.1-15.2,2.1l-103.2-68.1c0,0-0.1-14.9-2.5-19c-1.8-3.2-8.1-8.1-11.7-9.2
	C287.5,580.4,274.8,581.5,270.3,585.1z"/>
</svg>
