<?xml version="1.0" encoding="utf-8"?>
<!-- Generator: Adobe Illustrator 22.0.1, SVG Export Plug-In . SVG Version: 6.00 Build 0)  -->
<svg version="1.1" id="Слой_1" xmlns="http://www.w3.org/2000/svg" xmlns:xlink="http://www.w3.org/1999/xlink" x="0px" y="0px"
	 viewBox="0 0 697.6 768" style="enable-background:new 0 0 697.6 768;" xml:space="preserve">
<style type="text/css">
	.st0{fill:#454B49;}
	.st1{fill:#969696;}
	.st2{fill:none;}
	.st3{fill:#3AA2CC;}
</style>
<path class="st0" d="M114.8,331.6l17.8-5.5c0,0,3.3-52.2,64.4-84.3s114.3-10,114.3-10l13.3-7.5l-111-213.4L7.1,119.6L114.8,331.6z"
	/>
<path class="st0" d="M181.4,273.9l58.3-31.1l90.4,154.8c0,0-53.3-28.3-89.3,10L181.4,273.9z"/>
<polygon class="st1" points="20.4,145.7 228.2,39 246.9,74.9 40.2,184.7 "/>
<circle class="st1" cx="176.5" cy="195.8" r="39.2"/>
<path class="st0" d="M369.8,222l14.4,11.7c0,0,45.3-26,105.9,7.1s71.5,89.8,71.5,89.8l13.6,7l116.6-210.4l-204.7-112L369.8,222z"/>
<polygon class="st1" points="471.8,42 675.5,156.3 655.9,191.6 450.2,80 "/>
<circle class="st1" cx="512.5" cy="198.5" r="39.2"/>
<path class="st2" d="M363,227.6l14.8,11.1c0,0,62.1-25.2,117.6,8.1s56.2,92.5,56.2,92.5l11.1,8.1l126.5-216.8L482.1,10.9l-35.2,64.1
	l-1.6,3L363,227.6z"/>
<polygon class="st2" points="448.7,71.6 655,189.3 676.3,152.9 467.5,37.4 "/>
<path class="st0" d="M423.6,445.1l79.5-158.2c-13.6-17.9-24.3-22.1-25.1-22.4c-0.9-0.7-10.1-7.5-32.1-9.9l-94.7,149.6l-23.5,14.1
	l-38.9-5.9l-20.3,12.2l-32.1,78.8l30.6,22.2l4.1,21.5c0,0,10.5,24,29,32c16.4,11.6,42.2,8.3,42.2,8.3l20.5-7.6l34.8,14.8l51-68.1
	v-23.7l-25.1-30.3V445.1z M342.3,570.7c-34.3,0-62.1-27.8-62.1-62.1s27.8-62.1,62.1-62.1s62.1,27.8,62.1,62.1
	S376.6,570.7,342.3,570.7z"/>
<circle class="st0" cx="341" cy="508.6" r="38.3"/>
<path class="st3" d="M274.3,601.7c-9.3-16.5-0.5-21.4-0.5-21.4l-36.9-30c-8.4,24.7-32,42.3-59.6,41.9c-34.1-0.6-61.3-28.8-60.7-62.9
	c0.6-34.1,28.8-61.3,62.9-60.7c11.9,0.2,23,3.9,32.3,9.9l12.7-27.4c-12.1-1.7-8.8-19.2-8.8-19.2l3.1-44.4l-44.5-6.2
	c0,0-5.4,25-10,43.4c-4.1,16.7-12.4,16.2-13.9,16l-0.1-0.2c-0.1,0.1-0.2,0.1-0.2,0.2l0,0l0,0c-9.4,7.2-19.8-6.9-19.8-6.9l-30.2-32.7
	l-35,28.2c0,0,14.5,21.1,24.8,37c10,15.5,2.4,20.9,1.9,21.3l-0.1,0c-1.3,12.1-18.9,9.4-18.9,9.4l-44.5-1.8l-4.9,44.7
	c0,0,25.2,4.7,43.7,8.7c16.8,3.6,16.6,11.9,16.4,13.5l-0.2,0.1c0.1,0.1,0.1,0.1,0.2,0.2c0,0,0,0,0,0l0,0c8.4,8.4-4.2,20.5-4.2,20.5
	l-28.4,34.3l32.6,31c0,0,19-17.2,33.4-29.5c13.4-11.4,19.8-5.7,20.7-4.8l-0.1,0.2c12.1,1.5,9,19.1,9,19.1l-2.6,44.4l44.6,5.7
	c0,0,5.2-25.1,9.5-43.5c4.3-18.5,14.1-16.1,14.1-16.1l0-0.3l0.1,0.2c10-7,19.5,8,19.5,8l28,34.6l36.8-25.9
	C296.6,640.3,283.5,618.3,274.3,601.7z"/>
<path class="st3" d="M458.1,572c-11.9,7.2-15.7,0.8-15.7,0.8l-21.2,27.8c18.4,5.6,31.9,22.5,32.2,42.8c0.4,25.1-19.7,45.7-44.8,46.1
	c-25.1,0.4-45.7-19.7-46.1-44.8c-0.1-8.8,2.3-17,6.5-24l-20.4-8.7c-0.9,8.9-13.9,6.9-13.9,6.9l-32.7-1.2l-3.5,32.9
	c0,0,18.5,3.4,32.2,6.3c12.3,2.6,12.2,8.7,12.1,9.9l-0.2,0.1c0,0.1,0.1,0.1,0.1,0.2l0,0l0,0c5.5,6.8-4.6,14.7-4.6,14.7l-23.3,23
	l21.5,25.1c0,0,15.2-11.1,26.6-19.1c11.1-7.7,15.3-2.2,15.6-1.9l0,0.1c9,0.7,7.3,13.7,7.3,13.7l-0.3,32.7l33,2.5
	c0,0,2.9-18.6,5.3-32.3c2.3-12.4,8.4-12.5,9.5-12.4l0.1,0.1c0,0,0.1-0.1,0.1-0.1c0,0,0,0,0,0l0,0c6-6.4,15.2,2.6,15.2,2.6l25.9,20
	l22-24.7c0,0-13.1-13.5-22.5-23.8c-8.7-9.5-4.7-14.4-4-15.1l0.1,0.1c0.8-8.9,13.8-7.1,13.8-7.1l32.7,0.9l3.1-32.9
	c0,0-18.5-3.2-32.2-5.9c-13.7-2.7-12.2-10-12.2-10l-0.2,0l0.2-0.1c-5.4-7.2,5.4-14.5,5.4-14.5l24.7-21.4l-19.9-26.4
	C485.9,554.7,470.1,564.8,458.1,572z"/>
<path class="st3" d="M559.6,479.3l0.1,0c0-0.1,0-0.1,0-0.2c0,0,0,0,0,0l0,0c-1.8-7.3,9-9.6,9-9.6l26.5-9.1l-7.3-27.4
	c0,0-15.9,3-27.6,4.8c-10.9,1.7-12.5-3.5-12.7-4.2l0.1-0.1c-6-4.8,1.4-13.2,1.4-13.2l16-23l-22-17.8c0,0-11,11.8-19.4,20.2
	c-8.4,8.5-12.9,4-12.9,4l-0.1,0.2l0-0.2c-7.7,0.5-7.8-10.7-7.8-10.7l-3.7-27.8l-28.3,1.8c0,0-0.2,16.1-0.7,28.1
	c-0.5,11.9-6.8,11.6-6.8,11.6l9.9,28.3c12.7-10.5,31.2-12.2,45.8-2.8c18.1,11.6,23.4,35.6,11.8,53.7c-11.6,18.1-35.6,23.4-53.7,11.8
	c-1.8-1.1-3.4-2.4-4.9-3.7l-2.5,33.3c0.4-0.4,0.8-0.8,1.1-1.1c7.7-7.6,12-4.6,12.8-4l0,0.1c0.1,0,0.1,0,0.2,0l0,0v0
	c7.5-0.8,8.3,10.2,8.3,10.2l5.4,27.5l28.1-3.6c0,0-0.8-16.1-1.1-28c-0.3-11.6,5.6-12,6-12l0,0c4.7-6.1,13.2,1.2,13.2,1.2l23.3,15.6
	l17.4-22.4c0,0-12-10.8-20.6-19.1C556.1,484.4,559,480,559.6,479.3z"/>
</svg>
