<?xml version="1.0" encoding="utf-8"?>
<!-- Generator: Adobe Illustrator 19.0.1, SVG Export Plug-In . SVG Version: 6.00 Build 0)  -->
<svg version="1.1" id="Слой_1" xmlns="http://www.w3.org/2000/svg" xmlns:xlink="http://www.w3.org/1999/xlink" x="0px" y="0px"
	 viewBox="409.1 -104 953.8 768" style="enable-background:new 409.1 -104 953.8 768;" xml:space="preserve">
<style type="text/css">
	.st0{fill:#545559;}
	.st1{fill:#3AA2CC;}
	.st2{fill:#BBEFFF;}
</style>
<rect x="784.5" y="250.9" class="st0" width="41.8" height="31.4"/>
<rect x="867.9" y="250.9" class="st0" width="42.1" height="31.4"/>
<rect x="951.6" y="250.9" class="st0" width="41.2" height="31.4"/>
<rect x="1034.4" y="250.9" class="st0" width="41.8" height="31.4"/>
<path class="st0" d="M1185.5,162.7c-22.1,0-662,0-662,0s-19.5-1.3-19.5,16.9v329c0,0-2.6,23.4,23.4,23.4c26,0,205.5,0,205.5,0
	l97.5,67.6h282.2c0,0,18.2,0,29.9-9.1c11.7-9.1,62.4-70.2,62.4-70.2V179.6C1205,179.6,1207.6,162.7,1185.5,162.7z M548.2,409.8
	h217.2c12.4,12.4,0,26,0,26H548.2C531.3,418.9,548.2,409.8,548.2,409.8z M873.3,491.7H545.6c-14.3-22.1,0-31.2,0-31.2h327.7
	C887.7,474.8,873.3,491.7,873.3,491.7z M993.2,542.7c0,0-0.2,10.2-10.4,10.2s-10.2,0-10.2,0s-11.1-0.2-11.1-10s0-156.7,0-156.7
	S962,376,972.6,376s10.6,0,10.6,0s10,0.4,10,10.2C993.2,395.9,993.2,542.7,993.2,542.7z M1055.9,552.9c-10.2,0-10.2,0-10.2,0
	s-11.3,0.2-11.3-10s0-157.2,0-157.2s0.4-9.8,10.8-9.8c10.4,0,10.4,0,10.4,0s9.8,0,9.8,9.8s0,156.7,0,156.7
	S1066.1,552.9,1055.9,552.9z M1106.2,285c0,0,0,18.2-18.9,18.9c-18.9,0.7-310.2,0-310.2,0s-19.6,2-23.5-18.9
	c-3.8-20.8,0.1-35.1,0.1-35.1s0-15.8,17.2-16.9c19.2,0,314.5,0,314.5,0s19.5,0,20.8,16.9C1107.5,266.7,1106.2,285,1106.2,285z
	 M1128.5,552.9c-10.2,0-10.2,0-10.2,0s-10.8-0.2-10.8-10.4s0-155.9,0-155.9s0.2-10.4,10.2-10.6s10-0.2,10-0.2s10.6,0.9,10.6,10.8
	c0,10,0.9,155.4,0.9,155.4S1138.7,552.9,1128.5,552.9z"/>
<path class="st0" d="M1223.2,250.9v184.9l50.1,3.3v91.7h52c0,0,29.3-2.6,37.1-39V210.2c0,0-2-44.9-37.1-47.5h-50.7l0.7,88.2
	L1223.2,250.9L1223.2,250.9z"/>
<path class="st0" d="M482.8,292.8v113.5h-22.1v94.6h-29.9c0,0-22.1,0.3-21.8-33.2c0.3-33.5,0-243.9,0-243.9s-1.9-36.1,23.7-35.1
	h27.6v103.7L482.8,292.8z"/>
<path class="st1" d="M660.7,143.2V112l62.4-37.1V44.3h-42.9c0,0-19.5-2.6-19.5-22.1s0-39.7,0-39.7s1.3-22.8,22.1-22.8
	c20.8,0,342.7,0,342.7,0h8.9c0,0,20.5,0.1,20.5,20.5s0,41.2,0,41.2s-0.2,21.3-21.3,21.3s-40.8,0.8-40.8,0.8v30.6l62.2,45.5V143
	H660.7V143.2z"/>
<rect x="723.1" y="44.3" class="st2" width="269.7" height="29.9"/>
</svg>
