<?xml version="1.0" encoding="utf-8"?>
<!-- Generator: Adobe Illustrator 19.0.1, SVG Export Plug-In . SVG Version: 6.00 Build 0)  -->
<svg version="1.1" id="Слой_1" xmlns="http://www.w3.org/2000/svg" xmlns:xlink="http://www.w3.org/1999/xlink" x="0px" y="0px"
	 viewBox="612.3 6.4 547.4 547.2" style="enable-background:new 612.3 6.4 547.4 547.2;" xml:space="preserve">
<style type="text/css">
	.st0{fill:#545559;}
	.st1{fill:#545558;}
	.st2{fill:#3AA2CC;}
	.st3{fill:none;stroke:#FFFFFF;stroke-width:14;stroke-miterlimit:10;}
</style>
<path class="st0" d="M886.1,6C734.9,6,612.3,128.6,612.3,279.8s122.6,273.8,273.8,273.8s273.8-122.6,273.8-273.8
	C1159.9,128.6,1037.3,6,886.1,6z M885.1,501C762.4,501,663,401.5,663,278.8S762.5,56.6,885.2,56.6s222.2,99.5,222.2,222.2
	C1107.3,401.5,1007.8,501,885.1,501z"/>
<path class="st1" d="M667.8,215.3c0,0,2.6,22.7,15.6,27.3c13,4.5,22.7,0,22.7,0s31.8-17.5,48-15.6c0,0-2.6,57.1,25.3,115.5
	c0,0-44.8-10.4-71.4-26.6h-26.6c0,0-19.5,17.5-13.6,33.8c5.8,16.2-31.8-18.2-31.8-18.2L667.8,215.3z"/>
<path class="st1" d="M1100.6,215.3c0,0-2.6,22.7-15.6,27.3c-13,4.5-22.7,0-22.7,0s-31.8-17.5-48-15.6c0,0,2.6,57.1-25.3,115.5
	c0,0,44.8-10.4,71.4-26.6h26.6c0,0,19.5,17.5,13.6,33.8s31.8-18.2,31.8-18.2L1100.6,215.3z"/>
<path class="st1" d="M829.8,406.2c0,0,48.7,9.4,109.5,0v16.6c0,0-14,15.7-14,75.1l-17.7,13l-52.1-2.9l-7.6-10.1
	c0,0-0.7-60.7-17.9-73.7L829.8,406.2z"/>
<path class="st2" d="M932.8,174.1c-7.9-0.3-46.7,0-48.3,0c-1.5,0-40.3-0.3-48.3,0c-8.1,0.3-78.2,12.3-75.6,54.5s1.9,46.8,25.6,112
	s56.8,61,56.8,61h41.4h0.1H926c0,0,33.1,4.2,56.8-61s23-69.8,25.6-112S940.9,174.4,932.8,174.1z"/>
<path class="st3" d="M840.5,246h92c0,0,18.5-0.9,15.4,15.1c-3,15.7-19.7,47.8-19.7,47.8s-5.5,7.4-18.6,7.2c-15.4-0.2-48.9,0-48.9,0
	s-14.4-0.6-20.9-10.6c-6.4-10.1-15.4-43.8-15.4-43.8S818.4,246,840.5,246z"/>
</svg>
