<?xml version="1.0" encoding="utf-8"?>
<!-- Generator: Adobe Illustrator 22.0.1, SVG Export Plug-In . SVG Version: 6.00 Build 0)  -->
<svg version="1.1" id="Слой_1" xmlns="http://www.w3.org/2000/svg" xmlns:xlink="http://www.w3.org/1999/xlink" x="0px" y="0px"
	 viewBox="0 0 583.8 768" style="enable-background:new 0 0 583.8 768;" xml:space="preserve">
<style type="text/css">
	.st0{fill:#565558;}
	.st1{fill:#7C7C7C;}
	.st2{fill:#3AA2CC;}
</style>
<polygon class="st0" points="233.2,116.9 233.2,77.9 272.1,43.6 272.1,6 305.1,6 305.1,44.9 342.7,79.2 342.7,116.9 "/>
<rect x="233.2" y="134.7" class="st0" width="109.5" height="19.1"/>
<rect x="233.2" y="171.6" class="st0" width="109.5" height="18.5"/>
<rect x="233.2" y="204" class="st0" width="109.5" height="21.1"/>
<path class="st0" d="M233.2,242.9h109.5v69.3c0,0,24.4-4,31,9.9v23.1H204.8v-23.1c0,0,2.6-11.9,28.4-9.2V242.9z"/>
<polygon class="st1" points="215.3,353.7 215.3,394.7 373.7,394.7 365.1,353.7 "/>
<rect x="168.5" y="353.7" class="st0" width="64.7" height="40.9"/>
<rect x="240.4" y="353.7" class="st0" width="102.3" height="40.9"/>
<polygon class="st0" points="351.9,353.7 351.9,394.7 415.3,394.7 415.3,353.7 355.2,353.7 "/>
<rect x="183.7" y="400.6" class="st2" width="215.1" height="137.9"/>
<polygon class="st0" points="221.3,551 359.9,551 359.9,599.2 221.3,572.8 "/>
<polygon class="st0" points="221.3,582.7 359.9,610.4 359.9,635.5 221.3,606.5 "/>
<polygon class="st0" points="221.3,616.4 359.9,646.1 359.9,672.5 221.3,640.8 "/>
<path class="st0" d="M221.3,653.3l138.6,30.4v22.4h-54.8l-1.3,19.8h-31.7l0.7-21.1h-32.3v27.7c0,0-2,9.2,7.9,9.9
	c9.9,0.7,56.1,0,56.1,0l-0.7,19.1h-60.7c0,0-21.8,2-21.8-19.1S221.3,653.3,221.3,653.3z"/>
</svg>
