<?xml version="1.0" encoding="utf-8"?>
<!-- Generator: Adobe Illustrator 22.0.1, SVG Export Plug-In . SVG Version: 6.00 Build 0)  -->
<svg version="1.1" id="Слой_1" xmlns="http://www.w3.org/2000/svg" xmlns:xlink="http://www.w3.org/1999/xlink" x="0px" y="0px"
	 viewBox="0 0 1366 768" style="enable-background:new 0 0 1366 768;" xml:space="preserve">
<style type="text/css">
	.st0{fill:#4D4D4D;}
	.st1{fill:#FFFFFF;}
	.st2{fill:#3AA2CC;}
	.st3{fill:#945954;}
</style>
<g>
	<path class="st0" d="M292.3,581.5C137.7,581.5,12,455.8,12,301.2C12,146.7,137.7,20.9,292.3,20.9s280.3,125.7,280.3,280.3
		C572.6,455.8,446.8,581.5,292.3,581.5z M292.3,37.2c-145.6,0-264,118.4-264,264c0,145.6,118.4,264,264,264s264-118.4,264-264
		C556.3,155.6,437.9,37.2,292.3,37.2z"/>
</g>
<circle class="st0" cx="111.8" cy="401.4" r="26.5"/>
<circle class="st0" cx="85.3" cy="301.2" r="26.5"/>
<circle class="st0" cx="111.8" cy="195.4" r="26.5"/>
<circle class="st0" cx="185.5" cy="118.8" r="26.5"/>
<circle class="st0" cx="289.5" cy="92.4" r="26.5"/>
<circle class="st0" cx="388.7" cy="118.8" r="26.5"/>
<circle class="st0" cx="468.1" cy="201" r="26.5"/>
<circle class="st0" cx="494.5" cy="297.4" r="26.5"/>
<circle class="st0" cx="468.1" cy="401.4" r="26.5"/>
<rect x="185.5" y="421.2" class="st0" width="214.5" height="69"/>
<rect x="207.2" y="438.2" class="st1" width="24.6" height="35"/>
<rect x="251.4" y="438.2" class="st1" width="24.6" height="35"/>
<rect x="310.2" y="438.2" class="st1" width="24.6" height="35"/>
<rect x="354.2" y="438.2" class="st1" width="24.6" height="35"/>
<path class="st0" d="M153.6,176.4l7.8-7.4l158.8,116.9c0,0,13.8,17.7,0,33.3c-13.8,15.6-9.9,13.1-9.9,13.1s-23.4,16.9-37.2,0.1
	L153.6,176.4z"/>
<g>
	<path class="st0" d="M1072.9,581.5c-154.6,0-280.3-125.7-280.3-280.3c0-154.6,125.7-280.3,280.3-280.3s280.3,125.7,280.3,280.3
		C1353.2,455.8,1227.4,581.5,1072.9,581.5z M1072.9,37.2c-145.6,0-264,118.4-264,264c0,145.6,118.4,264,264,264s264-118.4,264-264
		C1336.9,155.6,1218.5,37.2,1072.9,37.2z"/>
</g>
<circle class="st0" cx="892.4" cy="401.4" r="26.5"/>
<circle class="st0" cx="865.9" cy="301.2" r="26.5"/>
<circle class="st0" cx="892.4" cy="195.4" r="26.5"/>
<circle class="st0" cx="966.1" cy="118.8" r="26.5"/>
<circle class="st0" cx="1070" cy="92.4" r="26.5"/>
<circle class="st0" cx="1169.3" cy="118.8" r="26.5"/>
<circle class="st0" cx="1248.6" cy="201" r="26.5"/>
<circle class="st0" cx="1275.1" cy="297.4" r="26.5"/>
<circle class="st0" cx="1248.6" cy="401.4" r="26.5"/>
<rect x="966.1" y="421.2" class="st0" width="152.1" height="69"/>
<rect x="987.8" y="438.2" class="st1" width="24.6" height="35"/>
<rect x="1032" y="438.2" class="st1" width="24.6" height="35"/>
<path class="st0" d="M1148.4,147l9.2,5.6l-66,175.9c0,0-13.4,18-32.1,8.8c-18.7-9.2-15.3-6.1-15.3-6.1s-22.5-18.1-10-35.9
	L1148.4,147z"/>
<g>
	<path class="st2" d="M678.8,747.2c-95.8,0-173.8-78-173.8-173.8s78-173.8,173.8-173.8s173.8,78,173.8,173.8
		S774.6,747.2,678.8,747.2z M678.8,412.6c-88.6,0-160.8,72.1-160.8,160.8s72.1,160.8,160.8,160.8S839.6,662,839.6,573.4
		S767.5,412.6,678.8,412.6z"/>
</g>
<path class="st2" d="M764.6,580.4c0,0-35.4,29.4-11,56c24.5,26.6,51.7-2.8,51.7-2.8s18.1-22.4,12-60.1c-6-37.7-19.5-80.9-61-108.6
	c-41.5-27.6-83.3-27.1-115.9-19c0,0-73.7,23.3-86.8,83.2c-11.5,41.6-3.9,99.6,29.4,133.2c0,0-29.3-41.8-25.5-103.1
	c0,0,6.9-53.3,46.4-78.7c53-34,106.3-14.5,106.3-14.5s50.2,8.5,59.9,66.3C779.4,586.7,772.8,573.4,764.6,580.4z"/>
<path class="st3" d="M400,577.5"/>
<path class="st2" d="M581.5,573.4l0.9,6.1l98,8.7c0,0,25.3,2.8,25.3-14.9s-6.8-24.8-22.1-25.5C668.4,547.2,581.5,573.4,581.5,573.4z
	"/>
</svg>
