<?xml version="1.0" encoding="utf-8"?>
<!-- Generator: Adobe Illustrator 19.0.1, SVG Export Plug-In . SVG Version: 6.00 Build 0)  -->
<svg version="1.1" id="Слой_1" xmlns="http://www.w3.org/2000/svg" xmlns:xlink="http://www.w3.org/1999/xlink" x="0px" y="0px"
	 viewBox="429.3 -104 913.4 768" style="enable-background:new 429.3 -104 913.4 768;" xml:space="preserve">
<style type="text/css">
	.st0{fill:#535458;}
	.st1{fill:#3AA2CC;}
	.st2{fill:#FBFBFB;}
	.st3{fill:#545559;}
</style>
<rect x="429.3" y="605.8" class="st0" width="912.6" height="29.6"/>
<polygon class="st1" points="1147,579.9 1147,554.4 1172.9,554.4 1172.9,73.7 1217.7,73.7 1217.7,552.9 1244.3,552.9 1244.3,579.9 
	"/>
<polygon class="st1" points="528.7,579.9 528.7,554.4 554.6,554.4 554.6,73.7 599.4,73.7 599.4,552.9 626,552.9 626,579.9 "/>
<polygon class="st1" points="525.4,216.1 543.2,216.1 543.2,281.9 525.4,281.9 525.4,217.9 "/>
<polygon class="st1" points="1226.5,216.1 1244.3,216.1 1244.3,281.9 1226.5,281.9 1226.5,217.9 "/>
<polygon class="st1" points="614.2,216.1 614.2,281.9 765,281.9 765,251.7 633.5,251.7 633.5,216.1 "/>
<polygon class="st1" points="1164.2,216.1 1164.2,281.9 1013.3,281.9 1013.3,251.7 1144.9,251.7 1144.9,216.1 "/>
<g>
	<polygon class="st2" points="820.5,132.7 820.5,163.8 888.5,163.8 956.5,163.8 956.5,132.7 888.5,132.7 	"/>
	<path class="st2" d="M727.1,73.6c-11.8-7-37.2-19.4-35.5,4.5c1.6,23.1,78.3,13.6,67.5,14.4c3-0.5,9.1-2.4,3-9.8
		C762.1,82.7,739,80.7,727.1,73.6z"/>
	<path class="st3" d="M1096.7,42.8c-11.3-10-36.7-33.3-36.7-33.3l6.2-2.2c0,0-2.3,3.9,9,3.9c11.3,0,11.3,0,11.3,0s17.5-0.6,18-12.8
		s-11.3-20.5-19.2-22.7s-23.7-3.9-24.3,7.8s-9,12.2-16.4,8.9L984.3-77h-95.8h-95.9L732.4-7.6c-7.4,3.3-15.8,2.8-16.4-8.9
		s-16.4-10-24.3-7.8S672-13.8,672.5-1.6s18,12.8,18,12.8s0,0,11.3,0s9-3.9,9-3.9l6.2,2.2c0,0-25.4,23.3-36.7,33.3
		c-11.3,10-10.7,18.9-10.7,18.9s0,133.7,0,154.4s26.5,17.6,26.5,17.6c0.7,0,4.6,0,22,0c25.4,0,24.3-17.6,24.3-17.6V202h146.1h146.1
		v14.1c0,0-1.1,17.6,24.3,17.6c17.4,0,21.3,0,22,0c0,0,26.5,3.1,26.5-17.6s0-154.4,0-154.4S1108,52.8,1096.7,42.8z M793.7-59.8h94.8
		h94.7l41.2,53.2H888.5h-136L793.7-59.8z M759.1,92.5c10.7-0.7-65.9,8.7-67.5-14.4c-1.7-23.9,23.7-11.5,35.5-4.5
		c11.9,7.1,35,9.1,35,9.1C768.2,90,762.2,92,759.1,92.5z M956.5,163.8h-68h-68v-31.1h68h68V163.8z M1085.3,78.1
		c-1.6,23.1-78.3,13.6-67.5,14.4c-3-0.5-9.1-2.4-3-9.8c0,0,23.1-2,35-9.1C1061.6,66.6,1087,54.2,1085.3,78.1z"/>
	<polygon class="st2" points="1024.4,-6.6 983.2,-59.8 888.5,-59.8 793.7,-59.8 752.5,-6.6 888.5,-6.6 	"/>
	<path class="st2" d="M1049.8,73.6c-11.9,7.1-35,9.1-35,9.1c-6.1,7.3-0.1,9.3,3,9.8c-10.7-0.7,65.9,8.7,67.5-14.4
		C1087,54.2,1061.6,66.6,1049.8,73.6z"/>
</g>
</svg>
