<?xml version="1.0" encoding="utf-8"?>
<!-- Generator: Adobe Illustrator 19.0.1, SVG Export Plug-In . SVG Version: 6.00 Build 0)  -->
<svg version="1.1" id="Слой_1" xmlns="http://www.w3.org/2000/svg" xmlns:xlink="http://www.w3.org/1999/xlink" x="0px" y="0px"
	 viewBox="598.3 18 575.4 524" style="enable-background:new 598.3 18 575.4 524;" xml:space="preserve">
<style type="text/css">
	.st0{fill:#545559;}
	.st1{fill:#3AA2CC;}
</style>
<path class="st0" d="M911.7,166.7c-62.5,0-113.3,50.7-113.3,113.3s50.7,113.3,113.3,113.3S1025,342.5,1025,279.9
	S974.3,166.7,911.7,166.7z M913.9,177.4c10.4,0,18.8,8.4,18.8,18.8s-8.4,18.8-18.8,18.8s-18.8-8.4-18.8-18.8
	C895.1,185.8,903.5,177.4,913.9,177.4z M819.4,252c0-10.4,8.4-18.8,18.8-18.8S857,241.7,857,252s-8.4,18.8-18.8,18.8
	S819.4,262.4,819.4,252z M869.3,361c-10.4,0-18.8-8.4-18.8-18.8s8.4-18.8,18.8-18.8s18.8,8.4,18.8,18.8S879.7,361,869.3,361z
	 M868.8,279.9c0-23.7,19.2-42.9,42.9-42.9s42.9,19.2,42.9,42.9s-19.2,42.9-42.9,42.9C888,322.9,868.8,303.7,868.8,279.9z M960.1,361
	c-10.4,0-18.8-8.4-18.8-18.8s8.4-18.8,18.8-18.8s18.8,8.4,18.8,18.8C978.8,352.6,970.4,361,960.1,361z M989,270.8
	c-10.4,0-18.8-8.4-18.8-18.8s8.4-18.8,18.8-18.8s18.8,8.4,18.8,18.8S999.4,270.8,989,270.8z"/>
<path class="st1" d="M735.1,22.3h-5.9c0,0,0,0-18.2,0s-17.7,19.9-17.7,19.9v11.3c-41.9,6.4-56.4,28.4-56.4,28.4
	c-40.3,66.6-38.6,154-38.6,154v107.4c4.8,55.8,17.7,112.2,42.9,137.4c25.2,25.2,52.3,23.6,52.3,23.6s0,0,0,16.4s16.9,16.9,16.9,16.9
	c0.4,0,3.1,0,18.4,0c20.5,0,22.4-16.6,22.4-16.6V407.7c-13.8-20.5-23.2-28.7-29.5-42.4c-13.5-29.1-14.4-53-14.4-53
	s-3.4-10.9,0.9-67.8s42.9-92.3,42.9-92.3V43.8v-1.6c0-1.2,0-3.2,0-6.4C751.3,22.8,735.1,22.3,735.1,22.3z M674.8,458.1
	c-10.5,13.4-29.2-26.8-29.2-26.8S623,406.1,623,279.9s22-149.2,22-149.2s19.9-34.4,29.8-22s0,38.6,0,38.6
	c-40.5,44.6-41.6,132.6-41.6,132.6c4.8,99.3,41.6,136.9,41.6,136.9S685.2,444.7,674.8,458.1z M723.9,499.6c7.1,0,12.8,5.7,12.8,12.8
	s-5.7,12.8-12.8,12.8s-12.8-5.7-12.8-12.8S716.8,499.6,723.9,499.6z M723.9,61.2c-7,0-12.6-5.6-12.6-12.6S716.9,36,723.9,36
	s12.6,5.6,12.6,12.6C736.5,55.6,730.8,61.2,723.9,61.2z"/>
<path class="st0" d="M910.7,18c-55.5,0-106.9,17.3-149.2,46.7v89.8c0,0-8.6,50.8-42.2,79.4v93.8c0,0,30.1,23.6,42.4,85.5
	c1.2,6.2,1.4,43.1,1.1,82.8c42.1,28.9,93,45.8,147.9,45.8c144.7,0,261.9-117.3,261.9-261.9S1055.3,18,910.7,18z M1076.3,343.5
	c-4,0-7.2-3.2-7.2-7.2s3.2-7.2,7.2-7.2s7.2,3.2,7.2,7.2S1080.3,343.5,1076.3,343.5z M1087.2,359.9c0,4-3.2,7.2-7.2,7.2
	s-7.2-3.2-7.2-7.2s3.2-7.2,7.2-7.2C1084,352.7,1087.2,355.9,1087.2,359.9z M1065.2,112.4c4,0,7.2,3.2,7.2,7.2s-3.2,7.2-7.2,7.2
	s-7.2-3.2-7.2-7.2C1058,115.6,1061.2,112.4,1065.2,112.4z M1015.5,110.5c4,0,7.2,3.2,7.2,7.2s-3.2,7.2-7.2,7.2s-7.2-3.2-7.2-7.2
	C1008.4,113.7,1011.6,110.5,1015.5,110.5z M989,113c4,0,7.2,3.2,7.2,7.2s-3.2,7.2-7.2,7.2s-7.2-3.2-7.2-7.2
	C981.9,116.2,985.1,113,989,113z M964.6,116.9c4,0,7.2,3.2,7.2,7.2s-3.2,7.2-7.2,7.2s-7.2-3.2-7.2-7.2
	C957.4,120.1,960.6,116.9,964.6,116.9z M922,40.1c4,0,7.2,3.2,7.2,7.2s-3.2,7.2-7.2,7.2s-7.2-3.2-7.2-7.2
	C914.9,43.3,918.1,40.1,922,40.1z M902.7,52.4c4,0,7.2,3.2,7.2,7.2s-3.2,7.2-7.2,7.2s-7.2-3.2-7.2-7.2S898.7,52.4,902.7,52.4z
	 M883,66.8c4,0,7.2,3.2,7.2,7.2s-3.2,7.2-7.2,7.2s-7.2-3.2-7.2-7.2S879,66.8,883,66.8z M865.8,84.1c4,0,7.2,3.2,7.2,7.2
	s-3.2,7.2-7.2,7.2s-7.2-3.2-7.2-7.2S861.8,84.1,865.8,84.1z M850.4,105c4,0,7.2,3.2,7.2,7.2s-3.2,7.2-7.2,7.2s-7.2-3.2-7.2-7.2
	C843.3,108.2,846.5,105,850.4,105z M835.2,124.7c4,0,7.2,3.2,7.2,7.2s-3.2,7.2-7.2,7.2s-7.2-3.2-7.2-7.2
	C828.1,127.9,831.3,124.7,835.2,124.7z M745.3,228.9c0-4,3.2-7.2,7.2-7.2s7.2,3.2,7.2,7.2s-3.2,7.2-7.2,7.2
	C748.6,236.1,745.3,232.9,745.3,228.9z M763,365.1c-4,0-7.2-3.2-7.2-7.2s3.2-7.2,7.2-7.2s7.2,3.2,7.2,7.2S766.9,365.1,763,365.1z
	 M784.7,460c-4,0-7.2-3.2-7.2-7.2s3.2-7.2,7.2-7.2s7.2,3.2,7.2,7.2S788.7,460,784.7,460z M812.4,457.5c-4,0-7.2-3.2-7.2-7.2
	s3.2-7.2,7.2-7.2s7.2,3.2,7.2,7.2S816.3,457.5,812.4,457.5z M838,452.9c-4,0-7.2-3.2-7.2-7.2s3.2-7.2,7.2-7.2s7.2,3.2,7.2,7.2
	C845.1,449.7,841.9,452.9,838,452.9z M860.9,446.4c-4,0-7.2-3.2-7.2-7.2s3.2-7.2,7.2-7.2s7.2,3.2,7.2,7.2
	C868.1,443.2,864.9,446.4,860.9,446.4z M903.8,528.9c-4,0-7.2-3.2-7.2-7.2s3.2-7.2,7.2-7.2s7.2,3.2,7.2,7.2
	C910.9,525.7,907.7,528.9,903.8,528.9z M924.5,513.3c-4,0-7.2-3.2-7.2-7.2s3.2-7.2,7.2-7.2s7.2,3.2,7.2,7.2S928.5,513.3,924.5,513.3
	z M946.5,497.3c-4,0-7.2-3.2-7.2-7.2s3.2-7.2,7.2-7.2s7.2,3.2,7.2,7.2C953.6,494.1,950.4,497.3,946.5,497.3z M964.3,477.4
	c-4,0-7.2-3.2-7.2-7.2s3.2-7.2,7.2-7.2s7.2,3.2,7.2,7.2S968.3,477.4,964.3,477.4z M979.9,456.3c-4,0-7.2-3.2-7.2-7.2
	s3.2-7.2,7.2-7.2s7.2,3.2,7.2,7.2C987,453.1,983.8,456.3,979.9,456.3z M992.4,435.5c-4,0-7.2-3.2-7.2-7.2s3.2-7.2,7.2-7.2
	s7.2,3.2,7.2,7.2C999.5,432.3,996.3,435.5,992.4,435.5z M911.2,416.8c-75.6,0-136.9-61.3-136.9-136.9S835.6,143,911.2,143
	s136.9,61.3,136.9,136.9S986.8,416.8,911.2,416.8z M1041.2,124.8c-4,0-7.2-3.2-7.2-7.2s3.2-7.2,7.2-7.2s7.2,3.2,7.2,7.2
	S1045.2,124.8,1041.2,124.8z M1057.8,207.2c0-4,3.2-7.2,7.2-7.2s7.2,3.2,7.2,7.2s-3.2,7.2-7.2,7.2
	C1061,214.4,1057.8,211.2,1057.8,207.2z M1073.6,461.3c-4,0-7.2-3.2-7.2-7.2s3.2-7.2,7.2-7.2s7.2,3.2,7.2,7.2
	S1077.6,461.3,1073.6,461.3z M1078.3,439c-4,0-7.2-3.2-7.2-7.2s3.2-7.2,7.2-7.2s7.2,3.2,7.2,7.2C1085.4,435.8,1082.2,439,1078.3,439
	z M1080.8,416c-4,0-7.2-3.2-7.2-7.2s3.2-7.2,7.2-7.2s7.2,3.2,7.2,7.2S1084.7,416,1080.8,416z M1080.8,391.7c-4,0-7.2-3.2-7.2-7.2
	s3.2-7.2,7.2-7.2s7.2,3.2,7.2,7.2C1088,388.4,1084.7,391.7,1080.8,391.7z M1085,228.7c-4,0-7.2-3.2-7.2-7.2s3.2-7.2,7.2-7.2
	s7.2,3.2,7.2,7.2S1089,228.7,1085,228.7z M1087.4,129.6c-4,0-7.2-3.2-7.2-7.2s3.2-7.2,7.2-7.2s7.2,3.2,7.2,7.2
	C1094.6,126.4,1091.4,129.6,1087.4,129.6z M1103.9,246c-4,0-7.2-3.2-7.2-7.2s3.2-7.2,7.2-7.2s7.2,3.2,7.2,7.2
	C1111.1,242.8,1107.9,246,1103.9,246z M1121.2,263.1c-4,0-7.2-3.2-7.2-7.2s3.2-7.2,7.2-7.2s7.2,3.2,7.2,7.2
	S1125.2,263.1,1121.2,263.1z M1135.5,282.6c-4,0-7.2-3.2-7.2-7.2s3.2-7.2,7.2-7.2s7.2,3.2,7.2,7.2S1139.5,282.6,1135.5,282.6z
	 M1148.6,303.4c-4,0-7.2-3.2-7.2-7.2s3.2-7.2,7.2-7.2s7.2,3.2,7.2,7.2C1155.8,300.2,1152.5,303.4,1148.6,303.4z"/>
</svg>
